#!OML:ASF H:\GeneralSubjects\Female5\Project 1\Capture day 1\Session 1\Female5.ASF
:FULLY-SPECIFIED
:DEGREES
268
root 17.8039 15.5805 5.18395 -68.8303 80.3566 -79.234
lowerback 7.5946 3.72416 12.0276
upperback -9.33125 7.59062 3.07973
thorax -13.6698 2.7375 -4.6565
lowerneck -16.471 -0.700439 0.292766
upperneck 26.1027 1.25485 -6.3315
head 11.2481 0.00495328 -2.1465
rclavicle 4.62671e-014 2.94201e-014
rhumerus -30.8865 40.7696 -82.0293
rradius 54.0536
rwrist -3.25552
rhand -23.2848 -15.3137
rfingers 7.12502
rthumb 3.16803 -45.2699
lclavicle 4.62671e-014 2.94201e-014
lhumerus -60.2158 10.2112 53.5464
lradius 29.8497
lwrist -10.3329
lhand -27.5256 30.7605
lfingers 7.12502
lthumb -0.927769 60.7383
rfemur 16.1169 10.1497 45.3388
rtibia 4.29474
rfoot 348.162 -11.2444
rtoes -13.5466
lfemur -40.0524 -13.2876 -14.5787
ltibia 20.6047
lfoot -23.7936 -10.4301
ltoes -19.5268
269
root 18.1888 15.4991 5.16731 -67.1651 79.9062 -77.5588
lowerback 7.2851 3.67436 12.4901
upperback -9.46628 7.57756 3.15235
thorax -13.6151 2.69834 -4.79721
lowerneck -15.7911 -0.546433 1.49458
upperneck 25.6763 1.32374 -7.14933
head 10.9608 0.0717261 -2.62619
rclavicle -2.38542e-015 2.46493e-014
rhumerus -30.5649 41.4727 -82.4181
rradius 55.1595
rwrist -3.31837
rhand -23.3698 -14.9167
rfingers 7.12502
rthumb 3.08602 -44.8741
lclavicle -2.38542e-015 2.46493e-014
lhumerus -60.1379 9.30951 53.5734
lradius 29.2807
lwrist -10.7286
lhand -27.4992 31.1262
lfingers 7.12502
lthumb -0.902254 61.104
rfemur 16.782 8.99514 45.0046
rtibia 5.41517
rfoot 350.738 -9.97634
rtoes -14.0436
lfemur -38.7412 -12.8552 -14.8437
ltibia 21.1211
lfoot -22.3073 -10.7603
ltoes -16.8423
270
root 18.5871 15.4075 5.17341 -65.2867 79.527 -75.5324
lowerback 6.82439 3.64251 12.4598
upperback -9.46998 7.47724 3.30712
thorax -13.3729 2.68914 -4.55188
lowerneck -16.0506 -0.377482 0.897102
upperneck 26.1925 1.39879 -5.85351
head 11.1978 0.19565 -2.05211
rclavicle -2.28602e-015 5.32743e-014
rhumerus -30.3169 41.8557 -82.6659
rradius 56.2089
rwrist -3.4843
rhand -23.3449 -14.7558
rfingers 7.12502
rthumb 3.11007 -44.7128
lclavicle -2.28602e-015 5.32743e-014
lhumerus -59.5996 9.1421 53.1343
lradius 27.9017
lwrist -12.0601
lhand -28.1988 30.2919
lfingers 7.12502
lthumb -1.57788 60.2658
rfemur 17.3687 8.47454 44.8445
rtibia 7.10516
rfoot 351.441 -8.99297
rtoes -7.34348
lfemur -37.3339 -11.9364 -15.2041
ltibia 21.0045
lfoot -23.0298 -2.83046
ltoes -21.3801
271
root 18.9749 15.3156 5.14185 -65.168 79.7763 -75.2504
lowerback 6.64098 3.44458 12.5936
upperback -9.57374 7.19044 3.16209
thorax -13.399 2.52558 -4.72891
lowerneck -16.3394 -0.250417 0.345358
upperneck 26.8557 1.43187 -4.6273
head 11.496 0.301332 -1.51359
rclavicle 3.48867e-014 -4.53229e-014
rhumerus -30.5051 41.589 -83.0549
rradius 57.1154
rwrist -3.44572
rhand -23.2554 -14.7287
rfingers 7.12502
rthumb 3.19644 -44.6845
lclavicle 3.48867e-014 -4.53229e-014
lhumerus -59.124 9.13291 52.5643
lradius 26.7312
lwrist -13.7704
lhand -28.482 29.5051
lfingers 7.12502
lthumb -1.85145 59.4768
rfemur 17.8192 6.86791 43.6004
rtibia 8.78555
rfoot 353.429 -7.94795
rtoes -4.19419
lfemur -37.5015 -11.0433 -16.9277
ltibia 24.5722
lfoot -20.9677 4.36895
ltoes -31.0311
272
root 19.3585 15.2462 5.12501 -64.6264 80.5486 -74.3479
lowerback 7.09111 3.32185 12.1765
upperback -9.84522 7.02108 2.75632
thorax -14.0172 2.39908 -4.98095
lowerneck -15.9647 -0.348038 1.30357
upperneck 26.9812 1.22974 -5.30239
head 11.4676 0.234146 -1.95606
rclavicle 9.34288e-015 3.57812e-015
rhumerus -31.6006 40.3037 -83.7023
rradius 57.9648
rwrist -3.42561
rhand -23.3331 -14.6516
rfingers 7.12502
rthumb 3.12139 -44.6085
lclavicle 9.34288e-015 3.57812e-015
lhumerus -58.4796 8.6927 52.1567
lradius 25.7498
lwrist -15.4872
lhand -26.8917 31.4209
lfingers 7.12502
lthumb -0.315471 61.4004
rfemur 17.9313 5.06302 41.6026
rtibia 11.1971
rfoot 356.302 -7.55942
rtoes -0.958868
lfemur -37.4871 -11.1121 -18.5574
ltibia 27.8402
lfoot -20.7931 1.50147
ltoes -23.6541
273
root 19.7396 15.2053 5.11783 -63.2837 81.8936 -72.6507
lowerback 6.38597 3.24941 10.6595
upperback -9.34373 6.47526 2.5639
thorax -13.1245 2.3423 -4.20967
lowerneck -15.8545 -0.388106 2.82198
upperneck 26.0089 1.15132 -7.06279
head 11.0851 0.126589 -2.85762
rclavicle -2.74323e-014 -1.86858e-014
rhumerus -31.2163 39.04 -82.8373
rradius 58.5896
rwrist -3.81332
rhand -23.413 -14.4844
rfingers 7.12502
rthumb 3.0443 -44.4424
lclavicle -2.74323e-014 -1.86858e-014
lhumerus -56.8661 9.52789 52.3763
lradius 24.8601
lwrist -16.9914
lhand -27.8539 30.991
lfingers 7.12502
lthumb -1.24478 60.9671
rfemur 17.4702 2.84615 38.619
rtibia 14.4545
rfoot 359.772 -8.08086
rtoes 7.59906
lfemur -36.9509 -11.2676 -20.8549
ltibia 30.4702
lfoot -20.555 -2.24608
ltoes -18.1663
274
root 20.112 15.1839 5.10341 -62.1785 83.483 -71.117
lowerback 6.41861 3.11292 9.2619
upperback -9.26346 6.01888 2.09657
thorax -13.1483 2.21956 -3.89432
lowerneck -18.0348 -0.350749 -0.159188
upperneck 28.5432 1.00392 -2.85697
head 12.4763 0.260567 -0.853772
rclavicle 1.55052e-014 5.96354e-015
rhumerus -32.2074 37.0384 -82.8261
rradius 58.9869
rwrist -4.08182
rhand -23.4257 -14.5247
rfingers 7.12502
rthumb 3.03195 -44.4829
lclavicle 1.55052e-014 5.96354e-015
lhumerus -55.8456 10.1081 52.2517
lradius 24.6492
lwrist -18.4065
lhand -27.6569 32.2642
lfingers 7.12502
lthumb -1.0545 62.2413
rfemur 16.2226 -0.150669 34.7971
rtibia 19.0445
rfoot 363.7 -9.53538
rtoes 14.8853
lfemur -35.4091 -11.3586 -23.621
ltibia 31.8293
lfoot -20.1988 -3.45921
ltoes -19.3892
275
root 20.4648 15.1712 5.08503 -61.2336 84.9266 -69.696
lowerback 6.66329 3.01666 8.13691
upperback -9.14867 5.67913 1.65459
thorax -13.2304 2.12466 -3.72559
lowerneck -16.5221 -0.541824 2.65958
upperneck 26.7835 0.753059 -6.16602
head 11.4842 0.0287905 -2.58208
rclavicle 1.83876e-014 4.77083e-015
rhumerus -33.2429 34.8989 -82.5951
rradius 59.0396
rwrist -4.60649
rhand -23.5242 -15.0921
rfingers 7.12502
rthumb 2.9369 -45.0516
lclavicle 1.83876e-014 4.77083e-015
lhumerus -54.8215 9.40211 53.7816
lradius 25.5322
lwrist -17.3535
lhand -27.533 36.1857
lfingers 7.12502
lthumb -0.934848 66.1634
rfemur 14.8749 -2.68768 31.3314
rtibia 23.7092
rfoot 368.12 -12.1604
rtoes 15.281
lfemur -33.029 -11.2923 -26.1871
ltibia 31.6351
lfoot -19.7757 -3.91413
ltoes -21.2776
276
root 20.7995 15.1699 5.07323 -56.5347 85.9598 -64.472
lowerback 6.98312 3.01686 7.04819
upperback -8.89668 5.49342 1.44117
thorax -13.2015 2.12211 -3.34592
lowerneck -17.2921 -0.619933 1.94823
upperneck 27.4404 0.708987 -5.56183
head 11.8914 0.00257719 -2.26434
rclavicle 1.68967e-015 -2.70347e-014
rhumerus -33.9778 33.1279 -82.0289
rradius 58.7372
rwrist -5.58573
rhand -23.509 -15.8149
rfingers 7.12502
rthumb 2.95156 -45.7742
lclavicle 1.68967e-015 -2.70347e-014
lhumerus -53.5038 9.31626 55.3946
lradius 26.4513
lwrist -16.1937
lhand -27.3687 31.3607
lfingers 7.12502
lthumb -0.776153 61.339
rfemur 13.1223 -4.32943 28.5722
rtibia 28.728
rfoot 373.301 -14.2133
rtoes 10.3258
lfemur -30.0809 -10.734 -28.2309
ltibia 30.2078
lfoot -19.2783 -4.85747
ltoes -20.8229
277
root 21.1254 15.1797 5.06774 -46.3914 86.5325 -53.7245
lowerback 7.28411 2.89618 5.85498
upperback -8.64953 5.16 1.48523
thorax -13.2157 2.0749 -2.59806
lowerneck -16.7688 -0.416675 2.60766
upperneck 27.0895 0.975178 -6.18484
head 11.6649 0.120132 -2.558
rclavicle -5.66536e-015 1.27222e-014
rhumerus -34.733 32.2214 -81.7859
rradius 58.0547
rwrist -6.59419
rhand -23.1317 -16.5259
rfingers 7.12502
rthumb 3.31594 -46.4798
lclavicle -5.66536e-015 1.27222e-014
lhumerus -52.6897 9.34807 57.0025
lradius 27.8123
lwrist -14.4819
lhand -27.3303 37.5263
lfingers 7.12502
lthumb -0.73913 67.5047
rfemur 10.9177 -5.03851 26.6051
rtibia 33.8954
rfoot 377.863 -15.8328
rtoes 3.16678
lfemur -26.9644 -9.93208 -29.6924
ltibia 28.4335
lfoot -19.2518 -5.5818
ltoes -20.3504
